<mxfile host="app.diagrams.net" modified="2023-03-07T13:36:58.745Z" agent="5.0 (Windows NT 10.0; Win64; x64) AppleWebKit/537.36 (KHTML, like Gecko) Chrome/110.0.0.0 Safari/537.36" etag="2jiJWN7cxvycANXkA8hp" version="21.0.2" type="github">
  <diagram name="Page-1" id="QDCNXK1DCwOD11ptDskI">
    <mxGraphModel dx="1909" dy="1133" grid="1" gridSize="10" guides="1" tooltips="1" connect="1" arrows="1" fold="1" page="1" pageScale="1" pageWidth="850" pageHeight="1100" math="0" shadow="0">
      <root>
        <mxCell id="0" />
        <mxCell id="1" parent="0" />
        <mxCell id="rm7D73icBiYwJ0o7D1fD-1" value="" style="shape=mxgraph.cisco.people.androgenous_person;html=1;pointerEvents=1;dashed=0;strokeWidth=2;verticalLabelPosition=bottom;verticalAlign=top;align=center;outlineConnect=0;" vertex="1" parent="1">
          <mxGeometry x="270" y="230" width="227.2" height="270" as="geometry" />
        </mxCell>
        <mxCell id="rm7D73icBiYwJ0o7D1fD-8" value="&lt;b&gt;&lt;font style=&quot;font-size: 17px;&quot;&gt;Kesimpulan&lt;/font&gt;&lt;/b&gt;" style="shape=ellipse;html=1;dashed=0;whiteSpace=wrap;aspect=fixed;perimeter=ellipsePerimeter;" vertex="1" parent="1">
          <mxGeometry x="110" y="290" width="120" height="120" as="geometry" />
        </mxCell>
        <mxCell id="rm7D73icBiYwJ0o7D1fD-11" value="" style="shape=flexArrow;endArrow=classic;html=1;rounded=0;endWidth=14.117647058823529;endSize=5.5058823529411764;fillColor=#000000;strokeColor=#6c8ebf;" edge="1" parent="1">
          <mxGeometry width="50" height="50" relative="1" as="geometry">
            <mxPoint x="630" y="359.17" as="sourcePoint" />
            <mxPoint x="710" y="359.17" as="targetPoint" />
          </mxGeometry>
        </mxCell>
        <mxCell id="rm7D73icBiYwJ0o7D1fD-15" value="" style="group" vertex="1" connectable="0" parent="1">
          <mxGeometry x="420" y="120" width="250" height="150" as="geometry" />
        </mxCell>
        <mxCell id="rm7D73icBiYwJ0o7D1fD-12" value="" style="ellipse;shape=cloud;whiteSpace=wrap;html=1;" vertex="1" parent="rm7D73icBiYwJ0o7D1fD-15">
          <mxGeometry width="250" height="150" as="geometry" />
        </mxCell>
        <mxCell id="rm7D73icBiYwJ0o7D1fD-6" value="" style="sketch=0;outlineConnect=0;fontColor=#232F3E;gradientColor=none;fillColor=#3F8624;strokeColor=none;dashed=0;verticalLabelPosition=bottom;verticalAlign=top;align=center;html=1;fontSize=12;fontStyle=0;aspect=fixed;pointerEvents=1;shape=mxgraph.aws4.data_set;" vertex="1" parent="rm7D73icBiYwJ0o7D1fD-15">
          <mxGeometry x="75.62" y="30" width="46.85" height="58" as="geometry" />
        </mxCell>
        <mxCell id="rm7D73icBiYwJ0o7D1fD-13" value="" style="sketch=0;outlineConnect=0;fontColor=#232F3E;gradientColor=none;fillColor=#3F8624;strokeColor=none;dashed=0;verticalLabelPosition=bottom;verticalAlign=top;align=center;html=1;fontSize=12;fontStyle=0;aspect=fixed;pointerEvents=1;shape=mxgraph.aws4.data_set;" vertex="1" parent="rm7D73icBiYwJ0o7D1fD-15">
          <mxGeometry x="135.62" y="30" width="38.77" height="48" as="geometry" />
        </mxCell>
        <mxCell id="rm7D73icBiYwJ0o7D1fD-14" value="Sumber Referensi/ Pustaka" style="text;html=1;strokeColor=none;fillColor=none;align=center;verticalAlign=middle;whiteSpace=wrap;rounded=0;fontStyle=1" vertex="1" parent="rm7D73icBiYwJ0o7D1fD-15">
          <mxGeometry x="100" y="100" width="85.61" height="30" as="geometry" />
        </mxCell>
        <mxCell id="rm7D73icBiYwJ0o7D1fD-16" value="" style="shape=flexArrow;endArrow=classic;startArrow=classic;html=1;rounded=0;fillColor=#f8cecc;strokeColor=#b85450;" edge="1" parent="1">
          <mxGeometry width="100" height="100" relative="1" as="geometry">
            <mxPoint x="495" y="340" as="sourcePoint" />
            <mxPoint x="575" y="270" as="targetPoint" />
            <Array as="points">
              <mxPoint x="565" y="340" />
            </Array>
          </mxGeometry>
        </mxCell>
        <mxCell id="rm7D73icBiYwJ0o7D1fD-18" value="" style="shape=flexArrow;endArrow=classic;html=1;rounded=0;width=5;endSize=3.66;endWidth=9;fillColor=#f8cecc;strokeColor=#b85450;" edge="1" parent="1">
          <mxGeometry width="50" height="50" relative="1" as="geometry">
            <mxPoint x="410" y="310" as="sourcePoint" />
            <mxPoint x="360" y="280" as="targetPoint" />
          </mxGeometry>
        </mxCell>
        <mxCell id="rm7D73icBiYwJ0o7D1fD-19" value="Proses Berfikir" style="text;html=1;strokeColor=none;fillColor=none;align=center;verticalAlign=middle;whiteSpace=wrap;rounded=0;fontStyle=1;fontSize=18;" vertex="1" parent="1">
          <mxGeometry x="260" y="190" width="140" height="30" as="geometry" />
        </mxCell>
        <mxCell id="rm7D73icBiYwJ0o7D1fD-20" value="" style="shape=flexArrow;endArrow=classic;html=1;rounded=0;width=5;endSize=3.66;endWidth=9;fillColor=#f8cecc;strokeColor=#b85450;" edge="1" parent="1">
          <mxGeometry width="50" height="50" relative="1" as="geometry">
            <mxPoint x="278" y="269" as="sourcePoint" />
            <mxPoint x="224.8521285665804" y="311.5182971467357" as="targetPoint" />
          </mxGeometry>
        </mxCell>
        <mxCell id="rm7D73icBiYwJ0o7D1fD-22" value="&lt;b&gt;&lt;font style=&quot;font-size: 17px;&quot;&gt;Kesimpulan&lt;/font&gt;&lt;/b&gt;" style="shape=ellipse;html=1;dashed=0;whiteSpace=wrap;aspect=fixed;perimeter=ellipsePerimeter;" vertex="1" parent="1">
          <mxGeometry x="740" y="290" width="120" height="120" as="geometry" />
        </mxCell>
        <mxCell id="rm7D73icBiYwJ0o7D1fD-24" value="" style="group" vertex="1" connectable="0" parent="1">
          <mxGeometry x="1050" y="130" width="250" height="150" as="geometry" />
        </mxCell>
        <mxCell id="rm7D73icBiYwJ0o7D1fD-25" value="" style="ellipse;shape=cloud;whiteSpace=wrap;html=1;" vertex="1" parent="rm7D73icBiYwJ0o7D1fD-24">
          <mxGeometry width="250" height="150" as="geometry" />
        </mxCell>
        <mxCell id="rm7D73icBiYwJ0o7D1fD-26" value="" style="sketch=0;outlineConnect=0;fontColor=#232F3E;gradientColor=none;fillColor=#3F8624;strokeColor=none;dashed=0;verticalLabelPosition=bottom;verticalAlign=top;align=center;html=1;fontSize=12;fontStyle=0;aspect=fixed;pointerEvents=1;shape=mxgraph.aws4.data_set;" vertex="1" parent="rm7D73icBiYwJ0o7D1fD-24">
          <mxGeometry x="75.62" y="30" width="46.85" height="58" as="geometry" />
        </mxCell>
        <mxCell id="rm7D73icBiYwJ0o7D1fD-27" value="" style="sketch=0;outlineConnect=0;fontColor=#232F3E;gradientColor=none;fillColor=#3F8624;strokeColor=none;dashed=0;verticalLabelPosition=bottom;verticalAlign=top;align=center;html=1;fontSize=12;fontStyle=0;aspect=fixed;pointerEvents=1;shape=mxgraph.aws4.data_set;" vertex="1" parent="rm7D73icBiYwJ0o7D1fD-24">
          <mxGeometry x="135.62" y="30" width="38.77" height="48" as="geometry" />
        </mxCell>
        <mxCell id="rm7D73icBiYwJ0o7D1fD-28" value="Sumber Referensi/ Pustaka" style="text;html=1;strokeColor=none;fillColor=none;align=center;verticalAlign=middle;whiteSpace=wrap;rounded=0;fontStyle=1" vertex="1" parent="rm7D73icBiYwJ0o7D1fD-24">
          <mxGeometry x="100" y="100" width="85.61" height="30" as="geometry" />
        </mxCell>
        <mxCell id="rm7D73icBiYwJ0o7D1fD-29" value="" style="shape=flexArrow;endArrow=classic;startArrow=classic;html=1;rounded=0;fillColor=#f8cecc;strokeColor=#b85450;" edge="1" parent="1">
          <mxGeometry width="100" height="100" relative="1" as="geometry">
            <mxPoint x="1085" y="350" as="sourcePoint" />
            <mxPoint x="1165" y="280" as="targetPoint" />
            <Array as="points">
              <mxPoint x="1155" y="350" />
            </Array>
          </mxGeometry>
        </mxCell>
        <mxCell id="rm7D73icBiYwJ0o7D1fD-32" value="" style="shape=flexArrow;endArrow=classic;html=1;rounded=0;width=5;endSize=3.66;endWidth=9;fillColor=#f8cecc;strokeColor=#b85450;entryX=1.023;entryY=0.452;entryDx=0;entryDy=0;entryPerimeter=0;" edge="1" parent="1" target="rm7D73icBiYwJ0o7D1fD-22">
          <mxGeometry width="50" height="50" relative="1" as="geometry">
            <mxPoint x="950" y="344" as="sourcePoint" />
            <mxPoint x="854.8521285665804" y="321.5182971467357" as="targetPoint" />
          </mxGeometry>
        </mxCell>
        <mxCell id="rm7D73icBiYwJ0o7D1fD-33" value="" style="shape=image;verticalLabelPosition=bottom;labelBackgroundColor=default;verticalAlign=top;aspect=fixed;imageAspect=0;image=https://uxwing.com/wp-content/themes/uxwing/download/brands-and-social-media/chatgpt-icon.png;" vertex="1" parent="1">
          <mxGeometry x="960" y="290" width="110" height="110" as="geometry" />
        </mxCell>
        <mxCell id="rm7D73icBiYwJ0o7D1fD-34" value="ChatGPT" style="text;html=1;strokeColor=none;fillColor=none;align=center;verticalAlign=middle;whiteSpace=wrap;rounded=0;fontStyle=1;fontSize=23;" vertex="1" parent="1">
          <mxGeometry x="945" y="420" width="140" height="30" as="geometry" />
        </mxCell>
      </root>
    </mxGraphModel>
  </diagram>
</mxfile>
